<svg width="10" height="12" viewBox="0 0 10 12" fill="none" xmlns="http://www.w3.org/2000/svg">
<path d="M4.04762 0C3.39119 0 2.85714 0.56075 2.85714 1.25V2H0.47619C0.213333 2 0 2.224 0 2.5C0 2.776 0.213333 3 0.47619 3H0.978423L1.37928 10.583C1.42166 11.3775 2.04767 12 2.80552 12H7.19448C7.95209 12 8.57834 11.3775 8.62072 10.583L9.02158 3H9.52381C9.78667 3 10 2.776 10 2.5C10 2.224 9.78667 2 9.52381 2H7.14286V1.25C7.14286 0.56075 6.60881 0 5.95238 0H4.04762ZM4.04762 1H5.95238C6.08381 1 6.19048 1.11225 6.19048 1.25V2H3.80952V1.25C3.80952 1.11225 3.91619 1 4.04762 1ZM5 4.0625C5.23024 4.0625 5.41667 4.2585 5.41667 4.5V9.5C5.41667 9.7415 5.23024 9.9375 5 9.9375C4.76976 9.9375 4.58333 9.7415 4.58333 9.5V4.5C4.58333 4.2585 4.76976 4.0625 5 4.0625ZM6.90662 4.0625C7.13638 4.071 7.31627 4.27364 7.30841 4.51514L7.14239 9.53662C7.13454 9.77312 6.95023 9.95923 6.72666 9.95898C6.72166 9.95898 6.71677 9.9585 6.71177 9.9585C6.48201 9.95 6.30213 9.74736 6.30999 9.50586L6.47554 4.48438C6.48363 4.24313 6.67615 4.05575 6.90662 4.0625ZM3.09291 4.06299C3.32244 4.05724 3.5159 4.24336 3.524 4.48486L3.69001 9.50635C3.69811 9.74785 3.51823 9.95048 3.28823 9.95898C3.28346 9.95898 3.27834 9.95898 3.27334 9.95898C3.05001 9.95898 2.865 9.77287 2.85714 9.53662L2.69113 4.51514C2.68303 4.27364 2.86291 4.07149 3.09291 4.06299Z" fill="white"/>
</svg>
