<svg width="12" height="12" viewBox="0 0 12 12" fill="none" xmlns="http://www.w3.org/2000/svg">
<path d="M11.3691 1.57357L11.8196 1.09882C12.0478 0.858438 12.0658 0.527917 11.8376 0.299557L11.6814 0.137301C11.4772 -0.0670207 11.1349 -0.0369734 10.9127 0.185377L10.4442 0.642097L11.3691 1.57357ZM4.25816 7.96764L5.48937 7.45083L10.9307 2.00625L10.0058 1.0868L4.56446 6.53739L4.02393 7.72726C3.96388 7.86548 4.12003 8.02173 4.25816 7.96764ZM1.97593 12H8.97277C10.1259 12 10.8046 11.3269 10.8046 10.0409V3.69491L9.60339 4.89079V9.93274C9.60339 10.5097 9.29709 10.7981 8.8947 10.7981H2.05401C1.50147 10.7981 1.20117 10.5097 1.20117 9.93274V3.25622C1.20117 2.67931 1.50147 2.39085 2.05401 2.39085H7.15299L8.34816 1.18896H1.97593C0.678664 1.18896 0 1.86202 0 3.14805V10.0409C0 11.3269 0.678664 12 1.97593 12Z" fill="white"/>
</svg>
