<svg width="145" height="145" viewBox="0 0 145 145" fill="none" xmlns="http://www.w3.org/2000/svg">
<path d="M72.3572 0C58.0463 0 44.0568 4.24367 32.1577 12.1944C20.2586 20.1451 10.9844 31.4457 5.50789 44.6673C0.0313516 57.8888 -1.40156 72.4374 1.39035 86.4733C4.18227 100.509 11.0736 113.402 21.193 123.521C31.3123 133.641 44.2051 140.532 58.241 143.324C72.2769 146.116 86.8255 144.683 100.047 139.206C113.269 133.73 124.569 124.456 132.52 112.557C140.471 100.658 144.714 86.668 144.714 72.3571C144.714 53.1668 137.091 34.7625 123.521 21.1929C109.952 7.62333 91.5475 7.95649e-06 72.3572 0ZM40.9003 105.664C39.4364 105.664 38.0054 105.23 36.7882 104.417C35.571 103.604 34.6223 102.448 34.0621 101.095C33.5019 99.7429 33.3553 98.2546 33.6409 96.8189C33.9265 95.3831 34.6314 94.0642 35.6666 93.0291C36.7017 91.994 38.0206 91.289 39.4563 91.0034C40.8921 90.7179 42.3803 90.8644 43.7328 91.4246C45.0853 91.9848 46.2412 92.9335 47.0545 94.1507C47.8678 95.3679 48.3019 96.7989 48.3019 98.2628C48.3019 99.2348 48.1105 100.197 47.7385 101.095C47.3665 101.993 46.8213 102.809 46.134 103.497C45.4467 104.184 44.6308 104.729 43.7328 105.101C42.8348 105.473 41.8723 105.664 40.9003 105.664ZM40.9003 79.7588C39.4364 79.7588 38.0054 79.3247 36.7882 78.5114C35.571 77.6981 34.6223 76.5421 34.0621 75.1896C33.5019 73.8372 33.3553 72.3489 33.6409 70.9132C33.9265 69.4774 34.6314 68.1586 35.6666 67.1234C36.7017 66.0883 38.0206 65.3834 39.4563 65.0978C40.8921 64.8122 42.3803 64.9587 43.7328 65.519C45.0853 66.0792 46.2412 67.0278 47.0545 68.245C47.8678 69.4622 48.3019 70.8932 48.3019 72.3571C48.3019 73.3291 48.1105 74.2916 47.7385 75.1896C47.3665 76.0876 46.8213 76.9036 46.134 77.5909C45.4467 78.2782 44.6308 78.8234 43.7328 79.1953C42.8348 79.5673 41.8723 79.7588 40.9003 79.7588ZM40.9003 53.8531C39.4364 53.8531 38.0054 53.419 36.7882 52.6057C35.571 51.7924 34.6223 50.6364 34.0621 49.2839C33.5019 47.9315 33.3553 46.4432 33.6409 45.0075C33.9265 43.5717 34.6314 42.2529 35.6666 41.2177C36.7017 40.1826 38.0206 39.4776 39.4563 39.1921C40.8921 38.9065 42.3803 39.053 43.7328 39.6133C45.0853 40.1735 46.2412 41.1221 47.0545 42.3393C47.8678 43.5565 48.3019 44.9875 48.3019 46.4514C48.3019 47.4234 48.1105 48.3859 47.7385 49.2839C47.3665 50.1819 46.8213 50.9979 46.134 51.6852C45.4467 52.3725 44.6308 52.9177 43.7328 53.2896C42.8348 53.6616 41.8723 53.8531 40.9003 53.8531ZM103.814 105.664H63.1052C61.1436 105.662 59.2632 104.881 57.877 103.494C56.4908 102.106 55.7122 100.224 55.7122 98.2628C55.7122 96.3013 56.4908 94.42 57.877 93.0322C59.2632 91.6443 61.1436 90.8635 63.1052 90.8612H103.814C104.787 90.8601 105.75 91.0507 106.649 91.4222C107.548 91.7936 108.365 92.3387 109.053 93.0261C109.742 93.7135 110.288 94.5298 110.66 95.4284C111.033 96.3269 111.224 97.2901 111.224 98.2628C111.224 99.2356 111.033 100.199 110.66 101.097C110.288 101.996 109.742 102.812 109.053 103.5C108.365 104.187 107.548 104.732 106.649 105.104C105.75 105.475 104.787 105.666 103.814 105.664ZM103.814 79.7588H63.1052C61.1422 79.7588 59.2595 78.979 57.8714 77.5909C56.4834 76.2028 55.7036 74.3202 55.7036 72.3571C55.7036 70.3941 56.4834 68.5115 57.8714 67.1234C59.2595 65.7353 61.1422 64.9555 63.1052 64.9555H103.814C105.777 64.9555 107.66 65.7353 109.048 67.1234C110.436 68.5115 111.216 70.3941 111.216 72.3571C111.216 74.3202 110.436 76.2028 109.048 77.5909C107.66 78.979 105.777 79.7588 103.814 79.7588ZM103.814 53.8531H63.1052C61.1436 53.8508 59.2632 53.07 57.877 51.6821C56.4908 50.2943 55.7122 48.413 55.7122 46.4515C55.7122 44.4899 56.4908 42.6086 57.877 41.2208C59.2632 39.8329 61.1436 39.0521 63.1052 39.0499H103.814C104.787 39.0487 105.75 39.2393 106.649 39.6108C107.548 39.9822 108.365 40.5273 109.053 41.2147C109.742 41.9021 110.288 42.7184 110.66 43.617C111.033 44.5156 111.224 45.4787 111.224 46.4515C111.224 47.4242 111.033 48.3873 110.66 49.2859C110.288 50.1845 109.742 51.0008 109.053 51.6882C108.365 52.3756 107.548 52.9207 106.649 53.2921C105.75 53.6636 104.787 53.8542 103.814 53.8531Z" fill="white"/>
</svg>
