<svg width="26" height="21" viewBox="0 0 26 21" fill="none" xmlns="http://www.w3.org/2000/svg">
<path d="M3.31483 0L8.97189 16.6642H9.20016L14.8572 0H18.172L11.0825 20.4607H7.31447L0 0H3.31483Z" fill="white"/>
<path d="M11.0825 20.4607H7.82795L14.8572 0H18.6855L26 20.4607H22.7447L16.9983 3.71649H16.8395L11.0825 20.4607Z" fill="white"/>
<path d="M7.93232 18.2785C7.64029 18.7643 7.26882 19.5742 7.26882 19.5742C7.26882 19.5742 7.91161 18.6507 8.37097 18.1049L8.38032 18.0938C8.71081 17.701 8.90042 17.4757 9.2696 17.1226C9.74097 16.6717 10.0377 16.4634 10.556 16.0884C11.0651 15.7202 11.3584 15.525 11.8954 15.2196C12.3401 14.9668 12.594 14.833 13.0556 14.6335C13.5518 14.419 13.8373 14.324 14.3461 14.1736C14.9967 13.9813 15.3673 13.8934 16.0255 13.8054C16.6836 13.7175 17.056 13.6966 17.7069 13.7244C18.4381 13.7556 18.8429 13.8292 19.5461 13.9959C20.4058 14.1997 21.6733 14.7462 21.6733 14.7462L22.8122 11.824C22.8122 11.824 21.6178 11.4608 20.7692 11.3608C20.0508 11.2761 19.6392 11.2585 18.9056 11.2937C18.1502 11.33 17.7208 11.3822 16.9667 11.5529C16.0045 11.7706 15.4659 11.9701 14.5404 12.3945C13.7753 12.7453 13.3525 12.9784 12.6331 13.4541C12.0184 13.8606 11.6854 14.1181 11.1147 14.6055C10.6249 15.0237 10.3562 15.2708 9.90662 15.7441C9.46243 16.2118 9.22783 16.4933 8.82889 17.009C8.45893 17.4873 8.24654 17.7557 7.93232 18.2785Z" fill="url(#paint0_linear_342_20)"/>
<defs>
<linearGradient id="paint0_linear_342_20" x1="19.7097" y1="12.0522" x2="7.75023" y2="17.9834" gradientUnits="userSpaceOnUse">
<stop stop-color="white"/>
<stop offset="1" stop-color="white" stop-opacity="0"/>
</linearGradient>
</defs>
</svg>
